<svg viewBox="0 0 324 144.18540110977918" height="144.18540110977918" width="324" style="width: 324px; height: 144.185px; position: absolute; top: 50%; left: 50%; transform: translate(-50%, -50%) scale(0.933642); z-index: 0; cursor: pointer;"><defs id="SvgjsDefs1936"><linearGradient id="SvgjsLinearGradient1941"><stop id="SvgjsStop1942" stop-color="#8f5e25" offset="0"></stop><stop id="SvgjsStop1943" stop-color="#fbf4a1" offset="0.5"></stop><stop id="SvgjsStop1944" stop-color="#8f5e25" offset="1"></stop></linearGradient><linearGradient id="SvgjsLinearGradient1945"><stop id="SvgjsStop1946" stop-color="#8f5e25" offset="0"></stop><stop id="SvgjsStop1947" stop-color="#fbf4a1" offset="0.5"></stop><stop id="SvgjsStop1948" stop-color="#8f5e25" offset="1"></stop></linearGradient></defs><g id="SvgjsG1937" featurekey="symbolFeature-0" transform="matrix(1.8587362176323263,0,0,1.8587362176323263,-41.63569056591251,-25.22937287364289)" fill="url(#SvgjsLinearGradient1941)"><g xmlns="http://www.w3.org/2000/svg"><path class="st2" d="M76.1,36.1c-3.1,0.9-5.9,2.6-8.9,3.5c-1.5,0.4-3.1,0.6-4.7,0.4c-1.6-0.2-3-0.9-4-2.1c-1-1.2-1.7-2.6-2.6-4   c-0.9-1.3-2.1-2.6-3.7-3.2c-3.3-1.2-6.6,0.6-9.6-0.2c-1.5-0.3-2.9-1.1-4.2-2c-1.3-0.9-2.5-2-3.8-3c-1.3-1-2.6-2-4-2.8   c0,0-0.1,0-0.1,0c-0.6-1.1-1.2-2.1-1.8-3.2c-0.8-1.4-1.5-2.9-2.8-4.1c-0.3-0.3-0.9-0.6-1.5-0.5c-0.6,0.2-0.9,0.5-1.2,0.9   c-0.6,0.7-0.8,1.7-0.8,2.6c0,0.9,0.4,1.8,1,2.5c0.3,0.4,0.7,0.6,1.1,0.9c0.4,0.2,0.8,0.3,1.2,0.4c0.8,0.2,1.6,0.3,2.3,0.5   c0.6,0.2,1.1,0.4,1.7,0.7c0.2,0.3,0.3,0.6,0.5,0.9l4.8,8.4c1.5,2.8,3.1,5.6,4.3,8.6c1.2,3,2,6.1,3.2,9.1c0.6,1.5,1.3,3,2.1,4.4   c0.4,0.7,0.9,1.4,1.4,2c0.6,0.6,1.2,1.2,1.9,1.7c1.4,1,2.9,1.5,3.9,2.6c1,1.2,1.2,2.8,1.4,4.3c0.3,3.2,0.7,6.4,1.3,9.6   c0.6,3.2,1.5,6.3,2.9,9.2c0.7,1.5,1.4,2.9,2.3,4.2c0.5,0.7,0.9,1.4,1.5,1.9c0.6,0.5,1.4,1,2.2,0.8c-0.8,0.2-1.6-0.3-2.1-0.8   c-0.6-0.5-1-1.2-1.4-1.9c-0.8-1.4-1.6-2.8-2.2-4.3c-1.3-2.9-2.1-6.1-2.6-9.2c-0.6-3.1-0.9-6.3-1.2-9.5c-0.1-1.6-0.3-3.3-1.4-4.7   c-1.1-1.4-2.8-1.9-4-2.8c-1.3-0.9-2.2-2.1-3-3.5c-0.8-1.4-1.5-2.8-2-4.3c-1.2-3-2-6.1-3.1-9.1c-0.6-1.5-1.3-3-2-4.4   c-0.7-1.4-1.5-2.9-2.3-4.3l-4.5-7.9c0.9,0.6,1.8,1.3,2.7,2c1.3,1,2.5,2,3.8,3c1.3,0.9,2.8,1.7,4.5,2.1c0.8,0.2,1.7,0.2,2.5,0.2   c0.8-0.1,1.6-0.2,2.4-0.3c1.6-0.2,3.2-0.4,4.6,0.2c1.4,0.5,2.6,1.6,3.5,2.9c0.9,1.3,1.6,2.8,2.7,4c1.1,1.3,2.7,2,4.4,2.2   c1.6,0.2,3.3-0.1,4.8-0.6C70.4,38.9,73.1,37,76.1,36.1C76.2,36.1,76.2,36.1,76.1,36.1l0.1-1.5L76.1,36.1z M28.3,21.8   c-0.8-0.3-1.6-0.4-2.4-0.5c-0.8-0.2-1.4-0.5-1.8-1c-0.4-0.5-0.7-1.2-0.7-1.9c0-0.7,0.2-1.4,0.6-1.9c0.2-0.3,0.5-0.5,0.7-0.5   c0.2,0,0.4,0,0.7,0.3c1,1,1.8,2.5,2.6,3.9c0.4,0.7,0.8,1.4,1.1,2.1C28.8,22,28.5,21.9,28.3,21.8z" style="fill: url(#SvgjsLinearGradient1941);"></path><path class="st2" d="M50.9,27.2c0.6-0.1,1.2-0.4,1.6-0.9c0.4-0.4,0.7-1,0.8-1.5c0.6-2.1,0.7-4.2,0.5-6.3c-0.1,1-0.2,2.1-0.4,3.1   c-0.2,1-0.4,2.1-0.8,3c-0.4,0.9-1,1.7-1.9,1.7c-0.8,0.1-1.8-0.4-2.4-1.1c-1.4-1.4-1.9-3.4-1.8-5.4c0-2,0.7-4,1.2-6.1l0,0l0,0   c0,0,0-0.1-0.1-0.1c-0.2-0.1-0.4,0.1-0.5,0.3c-0.1,0.2-0.1,0.4,0,0.5c-0.2-0.3,0.1-0.6,0.3-0.6c-0.8,1.9-1.6,3.8-1.8,6   c-0.2,2.1,0.3,4.5,2,6.2C48.5,26.7,49.6,27.4,50.9,27.2z" style="fill: url(#SvgjsLinearGradient1941);"></path><path class="st2" d="M47.1,54.4c0.8-3.3,1.3-6.6,1.6-10c0.1-1.7,0.2-3.4,0.2-5.1c0-0.9,0-1.8,0.1-2.6c0.7,3.1,1.3,6.2,1.9,9.4   c0.4,1.9,0.7,3.9,0.9,5.8c0.3,1.9,0.5,4,1.5,5.7c-0.8-1.8-0.9-3.8-1-5.8c-0.2-2-0.4-4-0.6-5.9c-0.6-3.9-1.4-7.8-2.2-11.7l0,0   c0-0.2-0.2-0.3-0.3-0.4c-0.3-0.1-0.5,0-0.6,0.3c-0.6,1.7-0.6,3.5-0.6,5.1c0,1.7,0.1,3.3,0,5C47.9,47.7,47.6,51.1,47.1,54.4z" style="fill: url(#SvgjsLinearGradient1941);"></path></g></g><g id="SvgjsG1938" featurekey="nameFeature-0" transform="matrix(0.39389082163343886,0,0,0.39389082163343886,123.82668806289811,60.46977363057938)" fill="url(#SvgjsLinearGradient1945)"><path d="M7 40.04 c-0.68 0.08 -1.36 0.08 -2.08 0.08 c-1.28 0 -2.56 -0.16 -3.88 -0.16 c-0.2 0 -0.6 -0.24 -0.6 -0.48 s0.4 -0.52 0.6 -0.6 c0.4 -0.16 0.76 -0.44 1.04 -0.76 c0.4 -0.48 0.76 -1 1.04 -1.56 c0.52 -1 1.04 -2.04 1.52 -3.08 c0.44 -0.92 1 -1.76 1.4 -2.68 c0.12 -0.32 0.12 -0.6 0.2 -0.92 c0.28 -0.88 0.76 -1.72 1.16 -2.56 l2.52 -5.48 c0.36 -0.8 0.88 -1.48 1.2 -2.28 c0.32 -0.84 0.56 -1.72 1 -2.48 c0.12 -0.2 0.2 -0.4 0.24 -0.6 c0.04 -0.16 0 -0.36 -0.04 -0.56 c-0.08 -0.16 -0.2 -0.32 -0.44 -0.48 c-0.32 -0.2 -1.12 -0.4 -0.96 -0.92 c0.2 -0.64 2 -0.24 2.52 -0.28 c1.28 -0.12 2.52 0.04 3.84 0 c1.16 -0.04 2.4 0 3.6 0.04 c1.12 0.04 2.2 -0.08 3.32 -0.08 c0.4 0 0.8 0.12 0.76 0.6 s-0.6 0.44 -0.96 0.68 c-0.2 0.16 -0.32 0.32 -0.36 0.48 c-0.08 0.2 -0.08 0.4 0 0.6 c0.04 0.2 0.12 0.4 0.24 0.56 c0.52 1 1.08 2.08 1.44 3.12 c0.48 1.52 1.28 2.8 1.92 4.24 c1.08 2.28 2.12 4.6 3.2 6.88 c0.8 1.72 1.48 3.52 2.4 5.2 c0.28 0.56 0.64 1.08 1 1.56 c0.28 0.28 0.6 0.56 0.96 0.72 c0.24 0.12 0.52 0.2 0.68 0.36 c0.12 0.2 0.2 0.64 0 0.76 c-0.24 0.12 -0.64 0 -0.88 0 c-0.88 0 -1.64 -0.08 -2.52 0 c-1 0.16 -2.04 0.2 -3.04 0.12 c-0.64 -0.04 -1.24 -0.08 -1.88 -0.08 c-0.32 0 -0.96 0.12 -1.2 -0.08 c-0.32 -0.24 -0.12 -0.68 0.16 -0.88 s0.68 -0.32 0.88 -0.6 c0.4 -0.68 -0.28 -1.44 -0.44 -2.04 c-0.24 -0.68 -0.28 -1.44 -0.84 -1.96 c-0.36 -0.32 -0.76 -0.24 -1.2 -0.24 c-0.8 0.04 -1.6 0.04 -2.4 0.08 c-0.56 0 -1.16 -0.08 -1.72 -0.08 l-5.84 0 c-0.8 0 -1.56 0 -2.36 0.04 c-0.52 0.04 -1 -0.08 -1.56 0.08 c-0.04 0.04 -0.12 0.04 -0.16 0.08 c-0.56 0.28 -0.48 0.8 -0.72 1.32 c-0.16 0.44 -0.32 0.88 -0.52 1.36 s-0.48 1.04 -0.12 1.52 c0.16 0.2 0.4 0.24 0.6 0.4 c0.36 0.24 0.72 0.84 0.12 1 c-0.88 0.2 -1.92 -0.08 -2.84 0.04 z M12.88 28.4 c-0.24 0.56 -0.96 1.68 0.12 1.92 c0.36 0.08 0.8 0 1.16 0 c0.4 -0.04 0.84 -0.04 1.28 -0.04 l5.6 0 c0.68 0 2.16 0.28 2.44 -0.52 c0.2 -0.64 -0.44 -1.56 -0.72 -2.16 c-0.16 -0.4 -0.36 -0.76 -0.6 -1.12 c-0.2 -0.36 -0.24 -0.8 -0.4 -1.16 c-0.28 -0.84 -0.72 -1.68 -1.08 -2.52 c-0.44 -1.04 -0.88 -2.12 -1.4 -3.12 c-0.16 -0.32 -0.4 -0.6 -0.64 -0.84 c-1.04 -0.88 -1.76 0.48 -2.08 1.24 c-0.24 0.56 -0.56 1.08 -0.84 1.64 c-0.24 0.56 -0.44 1.08 -0.72 1.6 c-0.36 0.6 -0.48 1.2 -0.72 1.8 c-0.28 0.68 -0.6 1.36 -0.88 2 c-0.16 0.44 -0.36 0.84 -0.52 1.28 z M49.44 15.600000000000001 c-0.32 -0.28 -0.88 -0.24 -1.08 -0.56 c-0.16 -0.2 -0.04 -0.56 0.16 -0.68 s0.48 -0.12 0.72 -0.12 l1.92 0 c0.6 0.04 1.2 -0.08 1.76 0 c1.04 0.16 2 0.04 3.04 0.04 c1.16 0 2.28 -0.04 3.44 -0.04 l2.8 0 l3.72 0 l0.28 0 c1.2 0 2.4 0.12 3.6 0.36 c0.6 0.08 1.16 0.16 1.72 0.32 c0.56 0.2 1.08 0.52 1.6 0.76 c0.96 0.52 1.8 1.2 2.4 2.08 c0.64 0.84 0.96 1.92 0.96 3.2 c0 1.16 -0.28 2.16 -0.84 3.08 c-0.32 0.56 -0.76 1 -1.28 1.44 c-0.28 0.24 -0.88 0.48 -0.92 0.88 c-0.08 0.52 1.04 0.8 1.44 1.04 c0.6 0.4 1.12 0.84 1.56 1.4 c0.44 0.52 0.76 1.12 1 1.8 c0.28 0.68 0.4 1.4 0.4 2.2 c0 0.48 -0.08 0.96 -0.16 1.44 c-0.2 0.84 -0.56 2.08 -1.28 2.68 c-0.72 0.64 -1.56 1.24 -2.44 1.64 c-1.12 0.56 -2.4 0.92 -3.8 1.12 c-1.4 0.24 -2.76 0.32 -4.16 0.32 l-2.92 0 c-1.08 0 -2.08 -0.08 -3.12 -0.04 c-1.12 0 -2.2 0.04 -3.28 0.04 l-6.12 0 l-1.2 0 c-0.24 0 -0.6 0.12 -0.84 -0.08 c-0.24 -0.24 -0.2 -0.6 0.04 -0.8 c0.24 -0.24 0.64 -0.2 0.88 -0.44 c0.16 -0.16 0.24 -0.52 0.24 -1 c0 -0.96 -0.08 -1.8 -0.04 -2.76 c0.08 -1.52 0.04 -3.04 0.04 -4.6 l0 -4.8 c0 -1.28 0.32 -2.56 0.04 -3.84 c-0.16 -0.76 -0.04 -1.64 -0.04 -2.4 l0 -2.72 c0 -0.48 -0.08 -0.8 -0.24 -0.96 z M56.28 18.76 c-0.4 0.36 -0.28 0.96 -0.28 1.4 l0 1.96 c0 0.48 -0.04 1 -0.04 1.48 c0.04 1.12 1.24 0.8 2.12 0.8 l2.48 0 l4.68 0 l0.88 0 c1.32 0 2.32 -0.24 3 -0.72 c0.72 -0.48 1.04 -1.28 1 -2.4 c-0.04 -1.08 -0.48 -1.84 -1.32 -2.2 c-1.16 -0.44 -2.4 -0.56 -3.64 -0.52 l-3.4 0 l-2.72 0 l-1.4 0 c-0.48 0 -0.96 -0.12 -1.36 0.2 z M56 34.2 c-0.12 0.76 0 1.44 0.96 1.44 l2.08 0 l4.44 0 l0.84 0 c0.72 0 1.44 -0.04 2.2 -0.12 c0.6 -0.04 1.16 -0.2 1.72 -0.32 c0.36 -0.04 0.8 -0.08 1.12 -0.32 c0.24 -0.16 0.4 -0.44 0.64 -0.64 c0.6 -0.56 0.88 -1.28 0.92 -2 c0.04 -0.8 -0.12 -1.44 -0.44 -1.92 c-0.36 -0.44 -0.8 -0.84 -1.36 -1.08 c-0.52 -0.28 -1.16 -0.44 -1.84 -0.52 c-1.24 -0.16 -2.44 -0.28 -3.72 -0.16 c-0.84 0.04 -1.68 0.04 -2.52 0.04 l-3.52 0 c-0.4 0 -0.84 0 -1.16 0.16 c-0.52 0.28 -0.36 0.8 -0.36 1.24 l0 1.88 c0 0.76 0.08 1.56 0 2.32 z M93.72 21.48 c0.36 0.12 2.2 1.2 2.4 0.8 c0.16 -0.32 -0.52 -0.88 0.08 -1.04 c0.24 -0.08 0.6 0 0.84 0 c0.4 0 0.84 -0.04 1.28 0 c0.44 0.08 0.84 0 1.28 0 c0.56 -0.04 1.12 0 1.64 0 s1.84 -0.32 1.64 0.56 c-0.12 0.36 -0.6 0.48 -0.88 0.72 c-0.32 0.28 -0.36 0.64 -0.36 1.04 c0 0.56 0 1.16 0.04 1.72 c0.04 0.48 -0.04 0.92 -0.04 1.36 c-0.04 0.8 0 1.64 0 2.44 l0 3.28 c0 0.92 -0.2 1.84 -0.08 2.76 c0.08 0.84 0.08 1.72 0.08 2.6 c0 0.4 0.04 0.84 0.44 1.08 c0.28 0.2 0.76 0.2 1.04 0.44 c0.16 0.12 0.16 0.2 0.12 0.4 c-0.08 0.16 -0.2 0.28 -0.32 0.32 c-0.16 0.04 -0.32 0.04 -0.48 0.04 c-0.52 -0.04 -1.04 -0.04 -1.56 -0.08 s-1 0.04 -1.52 0.04 c-0.6 0.04 -1.2 0.04 -1.8 0.04 c-0.4 0 -1.12 0.12 -1.36 -0.28 c-0.16 -0.28 0.12 -1.04 -0.48 -1.04 c-0.32 0 -0.68 0.4 -0.96 0.52 c-0.4 0.2 -0.84 0.4 -1.28 0.56 c-1 0.32 -2.04 0.48 -3.08 0.6 c-0.36 0.04 -0.72 0.04 -1.12 0.04 c-2.2 0 -4.44 -0.48 -6.32 -1.52 c-0.8 -0.48 -1.36 -1.12 -2.08 -1.68 c-0.8 -0.64 -1.32 -1.52 -1.72 -2.4 c-0.6 -1.32 -0.88 -2.8 -0.88 -4.24 c0 -1.88 0.6 -3.6 1.64 -5.24 c0.92 -1.48 2.44 -2.64 4.16 -3.4 c0.8 -0.36 1.68 -0.52 2.52 -0.8 c0.96 -0.32 2 -0.32 3 -0.32 c1.4 0 2.8 0.2 4.12 0.68 z M96.03999999999999 29.880000000000003 l0 -0.08 c0.08 -0.84 -0.28 -1.8 -0.76 -2.48 c-0.88 -1.4 -2.48 -2.32 -4.24 -2.56 c-0.84 -0.12 -1.52 -0.12 -2.32 0.04 c-0.24 0.04 -0.48 0.08 -0.68 0.16 c-1.24 0.32 -2.32 1.08 -3.04 2 c-0.4 0.48 -0.68 1 -0.92 1.56 c-0.12 0.32 -0.32 0.64 -0.4 1 c-0.12 0.36 0 0.68 0 1.04 c0 1.36 0.44 2.76 1.4 3.88 c0.44 0.52 1 0.96 1.64 1.32 c0.52 0.24 0.8 0.48 1.4 0.52 c0.4 0.04 0.76 0.12 1.16 0.16 c0.92 0.08 1.88 0 2.76 -0.28 c1.72 -0.52 3.12 -1.72 3.72 -3.24 c0.36 -0.96 0.24 -2.04 0.28 -3.04 z M105.67999999999999 37.72 c0 -0.72 0 -1.36 0.12 -2.04 s-0.12 -1.48 -0.12 -2.2 l0 -2.64 l0 -5.28 l0 -4.4 l0 -1.84 c0 -0.4 -0.08 -0.8 -0.12 -1.2 c0 -0.52 0.12 -1.04 0.12 -1.6 c0 -0.4 -0.04 -0.88 -0.48 -1.16 c-0.36 -0.2 -0.8 -0.16 -0.92 -0.64 c-0.16 -0.6 0.6 -0.52 1.04 -0.52 l4.2 0 c0.4 0 1.44 -0.16 1.72 0.12 c0.2 0.24 0.12 0.84 0.12 1.12 c0.04 0.2 0 0.4 0 0.6 l0 1.4 l0 1.44 l0 1.32 l0 3.04 c0 0.48 0.08 0.92 0.04 1.36 c-0.04 0.4 -0.16 0.8 -0.16 1.2 c0.04 0.32 0.12 0.6 0.12 0.96 l0 2.68 l0 6.76 l0 1.48 c0 0.4 0.04 0.84 0.48 1.12 c0.28 0.2 0.92 0.28 1 0.64 c0.12 0.48 -0.56 0.52 -0.88 0.56 l-2.08 0 l-4.12 0 c-0.4 0 -0.84 0.04 -1.2 0 c-0.36 -0.08 -0.52 -0.28 -0.36 -0.6 c0.2 -0.36 0.76 -0.36 1.08 -0.6 c0.36 -0.28 0.4 -0.68 0.4 -1.08 z M115.27999999999999 37.72 c0 -0.72 0 -1.36 0.12 -2.04 s-0.12 -1.48 -0.12 -2.2 l0 -2.64 l0 -5.28 l0 -4.4 l0 -1.84 c0 -0.4 -0.08 -0.8 -0.12 -1.2 c0 -0.52 0.12 -1.04 0.12 -1.6 c0 -0.4 -0.04 -0.88 -0.48 -1.16 c-0.36 -0.2 -0.8 -0.16 -0.92 -0.64 c-0.16 -0.6 0.6 -0.52 1.04 -0.52 l4.2 0 c0.4 0 1.44 -0.16 1.72 0.12 c0.2 0.24 0.12 0.84 0.12 1.12 c0.04 0.2 0 0.4 0 0.6 l0 1.4 l0 1.44 l0 1.32 l0 3.04 c0 0.48 0.08 0.92 0.04 1.36 c-0.04 0.4 -0.16 0.8 -0.16 1.2 c0.04 0.32 0.12 0.6 0.12 0.96 l0 2.68 l0 6.76 l0 1.48 c0 0.4 0.04 0.84 0.48 1.12 c0.28 0.2 0.92 0.28 1 0.64 c0.12 0.48 -0.56 0.52 -0.88 0.56 l-2.08 0 l-4.12 0 c-0.4 0 -0.84 0.04 -1.2 0 c-0.36 -0.08 -0.52 -0.28 -0.36 -0.6 c0.2 -0.36 0.76 -0.36 1.08 -0.6 c0.36 -0.28 0.4 -0.68 0.4 -1.08 z M146.88 31.240000000000002 c0.16 0.2 0.44 0.24 0.56 0.48 c0.32 0.88 -0.84 0.64 -1.36 0.64 l-4.2 0 l-3.72 0 c-0.4 0 -0.8 -0.12 -1.2 -0.12 c-0.56 0.08 -1.12 0.16 -1.68 0.12 c-0.88 -0.08 -1.8 0 -2.72 0 l-1.6 0 c-0.32 0 -0.64 -0.04 -0.92 0.16 c-0.76 0.52 -0.2 1.08 0.16 1.64 c0.32 0.44 0.72 0.8 1.2 1.12 c0.24 0.2 0.44 0.48 0.76 0.6 c0.36 0.16 0.84 0.24 1.2 0.36 c0.92 0.28 1.88 0.4 2.84 0.4 c0.64 0 1.28 -0.04 1.92 -0.12 c1.28 -0.12 2.72 -0.32 3.84 -0.88 c0.4 -0.2 0.84 -0.52 1 -0.92 c0.12 -0.36 0.08 -0.76 0.56 -0.88 c0.6 -0.08 0.88 0.76 1.08 1.12 c0.2 0.32 0.4 0.72 0.6 1.08 c0.16 0.32 0.44 0.64 0.64 0.96 c0.28 0.48 0.96 1.2 0.84 1.76 c-0.16 0.72 -0.84 0.2 -1.32 0.16 c-0.76 -0.08 -1.52 0.2 -2.2 0.4 c-2.28 0.76 -4.04 1.12 -7.32 1.12 c-2.72 0 -5.4 -0.44 -7.72 -1.8 c-0.68 -0.36 -1.28 -0.84 -1.84 -1.36 c-1.12 -1.04 -1.92 -2.32 -2.32 -3.76 c-0.28 -0.96 -0.4 -1.96 -0.4 -2.96 c0 -1.04 0.16 -2.12 0.52 -3.12 c0.24 -0.68 0.56 -1.32 1 -1.92 c0.2 -0.28 0.36 -0.44 0.64 -0.64 c0.4 -0.24 0.44 -0.64 0.72 -0.92 c0.36 -0.36 0.8 -0.68 1.24 -0.96 c0.8 -0.56 1.72 -1.04 2.68 -1.36 c1.64 -0.6 3.44 -0.88 5.24 -0.88 c0.84 0 1.72 0.04 2.56 0.2 c0.4 0.04 0.84 0.12 1.2 0.24 c0.24 0.08 0.48 0.24 0.72 0.36 c0.2 0.04 0.4 0.04 0.64 0.08 c0.4 0.08 0.84 0.36 1.2 0.56 c0.76 0.36 1.44 0.88 2.04 1.44 c0.68 0.64 1.2 1.36 1.64 2.16 c0.2 0.44 0.44 0.88 0.56 1.36 c0.04 0.16 0.04 0.32 0.08 0.48 c0.08 0.4 0.2 0.72 0.28 1.08 c0.04 0.52 0.08 1 0.08 1.52 c0 0.32 0 0.72 0.28 1 z M140.99999999999997 28.52 c0.08 -0.12 0.12 -0.24 0.08 -0.48 c-0.28 -0.88 -0.88 -1.56 -1.56 -2.2 c-0.52 -0.52 -1.12 -0.68 -1.88 -0.88 c-0.68 -0.2 -1.4 -0.28 -2.08 -0.28 c-1.52 0 -2.96 0.36 -4.16 1.2 c-0.6 0.44 -1.08 0.96 -1.44 1.56 c-0.16 0.24 -0.36 0.52 -0.36 0.8 c-0.04 0.48 0.4 0.48 0.8 0.44 l1.84 0 c0.6 0 1.24 -0.08 1.84 -0.04 c0.64 0 1.28 0.04 1.92 0.04 l2.96 0 c0.52 0 1.72 0.24 2.04 -0.16 z M151.39999999999998 31.8 l0 -1.88 c0 -0.84 0.24 -1.68 0.16 -2.52 c-0.04 -0.32 -0.16 -0.56 -0.16 -0.88 c-0.04 -0.96 0 -1.96 0 -2.92 c0 -0.48 -0.16 -0.96 -0.52 -1.28 c-0.2 -0.2 -0.44 -0.32 -0.72 -0.4 c-0.44 -0.12 -0.96 -0.32 -0.64 -0.84 c0.16 -0.24 0.52 -0.28 0.76 -0.4 c0.44 -0.16 0.84 -0.36 1.24 -0.6 c0.56 -0.36 1.08 -0.72 1.56 -1.12 c0.4 -0.4 0.92 -0.72 1.28 -1.16 c0.28 -0.36 0.48 -0.84 0.76 -1.24 c0.2 -0.28 0.32 -0.64 0.48 -0.92 c0.2 -0.44 0.48 -1.36 1.2 -0.84 c0.64 0.44 0.24 1.68 0.24 2.28 c-0.04 0.76 -0.04 1.52 0 2.32 c0 0.88 0.04 1.52 1.16 1.56 c0.76 0.04 1.64 -0.08 2.36 0.04 c0.8 0.16 1.4 -0.04 2.16 -0.04 c0.44 0 1 0.04 1.32 -0.28 c0.28 -0.28 0.32 -0.76 0.88 -0.68 c0.52 0.08 0.32 0.88 0.32 1.2 l0 3.92 c0 0.36 0.2 1.48 -0.52 1.48 c-0.6 -0.04 -0.44 -0.92 -0.8 -1.24 c-0.32 -0.24 -0.8 -0.32 -1.2 -0.32 c-1.32 0 -2.68 -0.08 -4.04 -0.04 c-0.72 0.04 -1.52 0.2 -1.6 0.96 c-0.08 0.68 -0.12 1.4 -0.16 2.08 c-0.04 0.76 -0.12 1.48 0.08 2.24 c0.16 0.72 0.08 1.56 0.08 2.28 c0 1.04 0.36 2.08 1.32 2.68 c1.44 0.8 3.44 0.56 4.72 -0.32 c0.32 -0.24 0.6 -0.56 0.72 -0.92 c0.12 -0.32 -0.12 -0.72 0.04 -1.08 c0.16 -0.2 0.44 -0.48 0.72 -0.32 c0.2 0.12 0.24 0.48 0.28 0.64 c0.24 0.76 0.4 1.52 0.64 2.28 c0.24 0.68 0.56 1.36 0.76 2.08 c0.12 0.32 1.08 2.16 0.4 2.4 c-0.28 0.08 -0.8 -0.48 -1 -0.6 c-0.44 -0.28 -0.88 -0.2 -1.36 0 c-2.8 1 -5.92 1 -8.76 0 c-0.4 -0.16 -0.92 -0.32 -1.28 -0.56 c-0.4 -0.24 -0.64 -0.68 -1.04 -0.96 c-0.44 -0.28 -0.72 -0.76 -0.96 -1.2 c-0.88 -1.52 -0.88 -3.2 -0.88 -4.88 z M180.03999999999996 39.12 c0.24 -0.24 0.68 -0.24 0.92 -0.44 c0.2 -0.2 0.32 -0.52 0.32 -1 c0 -2.4 -0.12 -4.88 0.04 -7.28 c0.12 -1.48 -0.04 -3.08 -0.04 -4.6 l0 -4.52 l0 -4.72 c0 -0.48 -0.12 -0.8 -0.32 -1 c-0.32 -0.28 -0.84 -0.24 -1 -0.64 c-0.4 -1 1.4 -0.64 1.96 -0.64 c1.08 0 2.2 -0.04 3.28 -0.04 l4.32 0 c0.32 0 0.68 -0.08 1.04 0 c0.16 0.04 0.32 0.08 0.44 0.2 c0.24 0.44 -0.48 0.72 -0.68 0.96 c-0.36 0.4 -0.4 0.88 -0.12 1.36 c0.68 1.12 1.4 2.24 2.08 3.4 c0.32 0.48 0.64 1 0.92 1.52 c0.64 1.4 1.64 2.6 2.48 3.92 c0.32 0.56 0.68 1.12 1.04 1.68 c0.32 0.52 0.64 1.28 1.24 1.6 c0.76 0.48 1.4 -0.72 1.64 -1.16 l1.2 -1.8 l2.28 -3.48 c0.6 -0.92 1.32 -1.72 1.8 -2.72 c0.48 -0.92 1.16 -1.8 1.76 -2.72 c0.24 -0.4 0.36 -0.76 0.24 -1.12 c-0.04 -0.2 -0.16 -0.44 -0.36 -0.52 c-0.96 -0.48 -0.6 -1.12 0.36 -1.2 c0.68 -0.04 1.28 0.2 1.96 0.16 c0.64 0 1.24 -0.08 1.88 -0.08 l3.28 0 c0.48 0 1 -0.04 1.48 0 c0.32 0.04 0.76 -0.04 1.04 0.08 c0.4 0.16 0.4 0.64 0.12 0.88 c-0.24 0.24 -0.76 0.16 -1 0.48 c-0.16 0.16 -0.24 0.48 -0.24 0.88 l0 10.48 l0 3.72 c0 0.84 -0.08 1.68 -0.12 2.48 c0 0.68 0.12 1.28 0.12 1.96 l0 2.48 c0 0.48 0.12 0.8 0.32 1 c0.12 0.12 0.32 0.2 0.52 0.28 c0.16 0.04 0.48 0.08 0.56 0.16 c0.16 0.16 0.12 0.72 -0.08 0.8 c-0.24 0.16 -0.68 0.08 -0.96 0.08 l-4.56 0 l-2.16 0 c-0.28 0 -0.72 0.16 -0.96 -0.04 c-0.24 -0.16 -0.24 -0.68 0 -0.88 s0.72 -0.16 0.96 -0.4 c0.2 -0.2 0.28 -0.52 0.28 -1 l0 -0.04 l0 -6.2 l0 -4.64 l0 -2.04 c0 -0.44 0.2 -1.64 -0.48 -1.72 c-0.52 -0.04 -1.44 1.84 -1.72 2.24 c-0.56 0.88 -1.16 1.76 -1.76 2.68 c-1.12 1.72 -2.28 3.48 -3.44 5.2 c-0.52 0.76 -0.84 1.56 -1.4 2.32 c-0.52 0.72 -1.12 1.4 -1.56 2.16 c-0.24 0.36 -0.68 1.4 -1.28 1.04 c-0.28 -0.16 -0.56 -0.64 -0.72 -0.92 l-0.76 -1.08 c-1.56 -2.48 -3.08 -4.92 -4.64 -7.36 c-0.36 -0.64 -0.6 -1.2 -0.88 -1.84 c-0.32 -0.68 -1 -1.2 -1.4 -1.84 l-0.96 -1.52 c-0.2 -0.32 -0.84 -1.32 -1.24 -0.64 c-0.28 0.52 -0.12 1.4 -0.12 1.96 l0 2.04 l0 4.36 l0 5.84 c0 0.48 0.08 0.8 0.24 1 c0.16 0.12 0.36 0.24 0.56 0.32 c0.12 0 0.28 0 0.32 0.04 c0.2 0.12 0.36 0.6 0.24 0.76 s-0.52 0.16 -0.68 0.2 c-0.48 0.04 -0.96 0 -1.44 0 l-3.08 0 l-2.12 0 c-0.24 0 -0.64 0.08 -0.88 -0.08 c-0.28 -0.16 -0.28 -0.6 -0.08 -0.8 z M240.79999999999995 21.24 c0.32 0.08 0.6 0.44 0.4 0.76 c-0.16 0.24 -0.68 0.28 -0.92 0.48 c-0.32 0.28 -0.32 0.68 -0.32 1.04 c0 0.8 0.12 1.52 0 2.32 c-0.12 1 0 1.96 0 2.96 l0 3 c0 0.84 -0.12 1.68 -0.08 2.52 c0.08 1.12 0.08 2.28 0.08 3.4 c0 0.36 0 0.8 0.32 1.04 c0.28 0.24 0.72 0.24 0.8 0.64 c0.24 0.88 -1.4 0.6 -1.96 0.6 c-0.6 0 -1.24 -0.2 -1.84 -0.08 c-0.44 0.04 -0.8 0.08 -1.24 0.08 c-0.36 0 -1.04 0.16 -1.36 -0.04 c-0.4 -0.2 -0.32 -0.84 -0.68 -1 c-0.4 -0.2 -1.08 0.32 -1.44 0.48 c-0.48 0.24 -1 0.44 -1.52 0.56 c-1 0.28 -2 0.44 -3.04 0.44 c-1.84 0 -3.72 -0.24 -5.36 -1.08 c-0.56 -0.28 -1.32 -0.72 -1.68 -1.24 c-0.44 -0.68 -1.08 -1.4 -1.36 -2.16 c-0.32 -0.88 -0.44 -1.84 -0.44 -2.76 l0 -2.68 c0 -0.76 -0.08 -1.6 0 -2.36 c0.08 -0.6 0.2 -1.2 0.16 -1.84 c-0.04 -0.36 -0.16 -0.72 -0.16 -1.08 l0 -1.68 c0 -0.44 -0.04 -0.88 -0.48 -1.16 c-0.52 -0.28 -1.76 -0.76 -0.52 -1.16 c0.2 -0.04 0.4 -0.04 0.64 -0.04 c0.64 0 1.36 0 2 0.12 c0.48 0.08 0.92 -0.04 1.44 -0.08 c0.4 -0.04 0.8 0.04 1.2 0.04 l1.72 0 c0.44 0 1.24 -0.08 1.12 0.48 c-0.12 0.52 -0.76 0.48 -1.08 0.76 c-0.28 0.28 -0.32 0.68 -0.32 1 l0 3.16 l0 2.64 l0 1.24 c0.08 1.16 -0.2 2.48 0.28 3.6 c0.44 1.04 1.28 1.96 2.56 2.12 c1.8 0.28 3.6 0.04 5 -1.08 c0.64 -0.56 1.12 -1.28 1.36 -2.08 c0.12 -0.36 0.16 -0.72 0.24 -1.12 c0.08 -0.32 -0.04 -0.64 -0.04 -1 c-0.04 -0.44 0 -0.92 0 -1.36 c0 -0.88 0.04 -1.76 0.04 -2.64 c0.04 -1.12 -0.08 -2.28 -0.08 -3.44 c0 -0.44 -0.04 -0.88 -0.52 -1.16 c-0.36 -0.2 -0.8 -0.24 -0.84 -0.72 c-0.04 -0.56 0.76 -0.44 1.2 -0.44 l2 0 c0.76 0.04 1.52 0 2.32 0 l1.6 0 c0.24 0 0.56 -0.04 0.8 0 z M253.67999999999998 36.76 c1.6 0 4.64 -0.28 4.56 -2.08 c-0.04 -1.6 -2.92 -1.84 -4.16 -1.8 c-0.44 0 -0.84 -0.04 -1.28 -0.08 c-0.72 -0.04 -1.44 -0.12 -2.12 -0.16 c-1.8 -0.16 -3.68 -0.52 -5.16 -1.44 c-0.52 -0.32 -0.76 -0.6 -1.04 -1.08 c-0.24 -0.4 -0.68 -0.68 -0.88 -1.12 c-0.24 -0.6 -0.4 -1.24 -0.4 -1.88 c-0.04 -1.16 0.32 -2.32 1.08 -3.28 c0.36 -0.48 0.6 -0.84 1.12 -1.16 c0.56 -0.32 1.2 -0.64 1.8 -0.88 c1.8 -0.68 4.12 -0.96 6.64 -0.96 c1.16 0.04 2.48 -0.08 3.6 0.24 c0.48 0.12 0.92 0.36 1.44 0.48 c0.6 0.16 1.16 0.36 1.72 0.56 c0.48 0.16 0.96 0.32 1.44 0.2 c0.48 -0.08 0.92 -0.48 1.36 -0.12 c0.32 0.32 0.04 0.84 -0.12 1.16 s-0.36 0.52 -0.56 0.8 c-0.24 0.28 -0.24 0.6 -0.36 0.88 c-0.2 0.44 -0.48 0.84 -0.72 1.28 l-0.44 0.84 c-0.08 0.16 -0.08 0.44 -0.16 0.56 c-0.16 0.28 -0.76 0.24 -1.04 0.12 c-0.28 -0.2 -0.24 -0.52 -0.32 -0.8 c-0.08 -0.32 -0.36 -0.6 -0.64 -0.84 c-1.44 -1.24 -3.68 -1.72 -5.64 -1.6 c-0.48 0.04 -0.96 0.16 -1.44 0.12 c-0.48 0 -0.88 0.04 -1.36 0.2 c-0.76 0.2 -1.72 0.6 -1.88 1.4 l0 0.24 c0.04 1.2 1.52 1.6 4.24 1.84 c0.92 0.08 2.08 0.2 3.24 0.28 c1.48 0.12 3 0.36 4.36 0.92 c0.64 0.24 1.16 0.56 1.72 0.96 c0.24 0.2 0.56 0.32 0.8 0.56 c0.2 0.28 0.28 0.6 0.44 0.88 c0.4 0.72 0.56 1.56 0.56 2.36 c0.04 0.6 -0.08 1.24 -0.28 1.8 c-0.16 0.44 -0.32 1 -0.68 1.32 c-0.2 0.2 -0.48 0.4 -0.68 0.6 c-0.24 0.2 -0.36 0.44 -0.56 0.64 c-0.52 0.44 -1.28 0.68 -1.92 0.92 c-1.2 0.44 -2.44 0.68 -3.72 0.84 c-0.6 0.04 -1.24 0.16 -1.84 0.08 c-0.56 -0.08 -1.08 0.04 -1.64 0.04 s-1.16 -0.04 -1.72 -0.12 c-0.96 -0.08 -1.88 -0.24 -2.8 -0.48 c-1.04 -0.24 -2.04 -0.56 -3.04 -0.92 c-0.4 -0.16 -0.84 -0.2 -1.2 0 c-0.32 0.2 -0.44 0.48 -0.84 0.32 c-0.64 -0.24 -0.4 -0.8 -0.16 -1.24 c0.4 -0.72 0.68 -1.44 1.2 -2.16 c0.28 -0.4 0.36 -0.88 0.6 -1.36 c0.16 -0.32 0.2 -0.88 0.48 -1.12 c0.36 -0.32 0.88 -0.24 1.12 0.12 c0.2 0.4 0 0.76 0.36 1.12 c0.4 0.48 1 0.76 1.6 0.96 c0.52 0.2 1.16 0.28 1.6 0.52 c0.52 0.28 1.04 0.24 1.6 0.32 c0.68 0.16 1.4 0.2 2.12 0.2 z M267.55999999999995 18.68 c-0.16 -0.12 -0.36 -0.24 -0.48 -0.44 c-0.44 -0.64 -0.56 -1.4 -0.32 -2.12 c0.2 -0.6 0.6 -1.16 1.16 -1.52 c0.52 -0.36 1.16 -0.56 1.8 -0.56 c0.76 0 1.76 0.24 2.24 0.8 c0.48 0.6 0.88 1.24 0.88 2 c0 1.48 -1.44 2.84 -3.12 2.84 c-0.56 0 -1.24 -0.12 -1.64 -0.48 c-0.16 -0.2 -0.28 -0.36 -0.52 -0.52 z M265.52 21.52 c0.32 -0.52 2.08 -0.24 2.6 -0.24 l2.72 0 c0.44 0 0.88 -0.08 1.32 0 c0.16 0.04 0.28 0.08 0.36 0.16 c0.16 0.08 0.2 0.28 0.16 0.52 c-0.04 0.44 0 0.92 0 1.36 l0 3.6 l0 4.08 l0 2.6 c0 0.68 -0.12 1.44 -0.08 2.12 c0.04 0.8 -0.12 1.8 0.16 2.52 c0.2 0.48 1.24 0.76 1.12 1.32 c-0.12 0.64 -1.4 0.44 -1.88 0.36 c-0.76 -0.08 -1.56 0.04 -2.32 0.08 c-0.56 0.04 -1.08 0 -1.64 0 c-0.64 0 -1.28 0.16 -1.96 0.04 c-0.32 -0.04 -0.68 -0.2 -0.56 -0.56 c0.16 -0.4 0.76 -0.44 1.04 -0.72 c0.32 -0.24 0.32 -0.64 0.32 -1 l0 -1.48 l0 -5.96 c0 -0.48 0.08 -0.88 0.12 -1.32 c0.08 -0.6 0 -1.24 -0.04 -1.84 c-0.04 -1.2 -0.08 -2.4 -0.08 -3.56 c0 -0.36 0 -0.8 -0.28 -1.04 c-0.28 -0.28 -1.56 -0.36 -1.08 -1.04 z M282.4 26.880000000000003 c-0.56 0.4 -0.64 0.92 -1 1.48 c-0.44 0.68 -0.56 1.48 -0.56 2.24 c0 1.04 0.28 2.08 0.88 2.96 c0.32 0.44 0.72 0.84 1.16 1.12 c0.44 0.32 0.8 0.72 1.28 0.92 c1.2 0.64 2.6 0.92 4 0.92 c0.68 0 1.4 -0.04 2.08 -0.16 c0.36 -0.04 0.68 -0.16 1.04 -0.2 c0.76 -0.12 1.4 -0.4 2.12 -0.68 c0.4 -0.16 0.72 -0.4 0.96 -0.76 c0.2 -0.28 0.2 -0.76 0.6 -0.88 c0.8 -0.36 1.16 1 1.44 1.44 s0.52 0.96 0.88 1.36 c0.36 0.44 0.6 1.04 0.92 1.52 c0.08 0.16 0.2 0.32 0.2 0.52 c0.04 0.16 -0.04 0.32 -0.28 0.4 c-0.36 0.12 -0.84 -0.16 -1.2 -0.2 c-0.76 0 -1.52 0.28 -2.24 0.48 c-0.8 0.24 -1.72 0.6 -2.52 0.6 c-0.72 0 -1.28 0.28 -2 0.36 c-0.76 0.12 -1.56 0.16 -2.36 0.16 c-0.48 0 -0.92 -0.04 -1.36 -0.04 c-2.04 -0.12 -4.08 -0.56 -5.92 -1.4 s-3.12 -2.04 -4.2 -3.6 c-0.28 -0.4 -0.52 -0.88 -0.72 -1.36 c-0.28 -0.76 -0.44 -1.56 -0.52 -2.36 c-0.04 -0.32 -0.12 -0.64 -0.12 -0.96 s0.12 -0.64 0.16 -0.96 c0 -0.52 0.04 -1.08 0.16 -1.6 c0.28 -1.12 0.76 -2.24 1.48 -3.16 c0.44 -0.52 0.96 -1 1.52 -1.44 c0.52 -0.4 1.16 -0.6 1.68 -0.96 c0.52 -0.4 1.08 -0.64 1.72 -0.88 c1.92 -0.68 4.04 -0.96 6.12 -0.96 c2.4 0 4.6 0.36 6.88 1.08 c0.56 0.2 1.16 0.4 1.76 0.44 c0.52 0.04 1.04 -0.24 1.52 -0.12 c0.56 0.16 0.48 0.52 0.24 0.88 c-0.16 0.28 -0.32 0.6 -0.52 0.84 c-0.24 0.28 -0.4 0.4 -0.48 0.76 c-0.12 0.36 -0.32 0.64 -0.56 0.96 c-0.32 0.4 -0.52 0.8 -0.72 1.2 c-0.12 0.28 -0.36 0.76 -0.76 0.68 c-0.28 -0.04 -0.52 -0.28 -0.64 -0.52 c-0.2 -0.36 -0.36 -0.76 -0.76 -1 c-0.56 -0.4 -1.28 -0.6 -1.92 -0.76 c-0.68 -0.2 -1.36 -0.28 -2.04 -0.4 c-0.48 -0.08 -1.08 -0.2 -1.56 -0.16 c-0.48 0.08 -0.96 0.08 -1.44 0.16 c-0.96 0.12 -1.92 0.4 -2.8 0.84 c-0.6 0.36 -1.08 0.8 -1.6 1.2 z M317.79999999999995 40.04 c-0.68 0.08 -1.36 0.08 -2.08 0.08 c-1.28 0 -2.56 -0.16 -3.88 -0.16 c-0.2 0 -0.6 -0.24 -0.6 -0.48 s0.4 -0.52 0.6 -0.6 c0.4 -0.16 0.76 -0.44 1.04 -0.76 c0.4 -0.48 0.76 -1 1.04 -1.56 c0.52 -1 1.04 -2.04 1.52 -3.08 c0.44 -0.92 1 -1.76 1.4 -2.68 c0.12 -0.32 0.12 -0.6 0.2 -0.92 c0.28 -0.88 0.76 -1.72 1.16 -2.56 l2.52 -5.48 c0.36 -0.8 0.88 -1.48 1.2 -2.28 c0.32 -0.84 0.56 -1.72 1 -2.48 c0.12 -0.2 0.2 -0.4 0.24 -0.6 c0.04 -0.16 0 -0.36 -0.04 -0.56 c-0.08 -0.16 -0.2 -0.32 -0.44 -0.48 c-0.32 -0.2 -1.12 -0.4 -0.96 -0.92 c0.2 -0.64 2 -0.24 2.52 -0.28 c1.28 -0.12 2.52 0.04 3.84 0 c1.16 -0.04 2.4 0 3.6 0.04 c1.12 0.04 2.2 -0.08 3.32 -0.08 c0.4 0 0.8 0.12 0.76 0.6 s-0.6 0.44 -0.96 0.68 c-0.2 0.16 -0.32 0.32 -0.36 0.48 c-0.08 0.2 -0.08 0.4 0 0.6 c0.04 0.2 0.12 0.4 0.24 0.56 c0.52 1 1.08 2.08 1.44 3.12 c0.48 1.52 1.28 2.8 1.92 4.24 c1.08 2.28 2.12 4.6 3.2 6.88 c0.8 1.72 1.48 3.52 2.4 5.2 c0.28 0.56 0.64 1.08 1 1.56 c0.28 0.28 0.6 0.56 0.96 0.72 c0.24 0.12 0.52 0.2 0.68 0.36 c0.12 0.2 0.2 0.64 0 0.76 c-0.24 0.12 -0.64 0 -0.88 0 c-0.88 0 -1.64 -0.08 -2.52 0 c-1 0.16 -2.04 0.2 -3.04 0.12 c-0.64 -0.04 -1.24 -0.08 -1.88 -0.08 c-0.32 0 -0.96 0.12 -1.2 -0.08 c-0.32 -0.24 -0.12 -0.68 0.16 -0.88 s0.68 -0.32 0.88 -0.6 c0.4 -0.68 -0.28 -1.44 -0.44 -2.04 c-0.24 -0.68 -0.28 -1.44 -0.84 -1.96 c-0.36 -0.32 -0.76 -0.24 -1.2 -0.24 c-0.8 0.04 -1.6 0.04 -2.4 0.08 c-0.56 0 -1.16 -0.08 -1.72 -0.08 l-5.84 0 c-0.8 0 -1.56 0 -2.36 0.04 c-0.52 0.04 -1 -0.08 -1.56 0.08 c-0.04 0.04 -0.12 0.04 -0.16 0.08 c-0.56 0.28 -0.48 0.8 -0.72 1.32 c-0.16 0.44 -0.32 0.88 -0.52 1.36 s-0.48 1.04 -0.12 1.52 c0.16 0.2 0.4 0.24 0.6 0.4 c0.36 0.24 0.72 0.84 0.12 1 c-0.88 0.2 -1.92 -0.08 -2.84 0.04 z M323.67999999999995 28.4 c-0.24 0.56 -0.96 1.68 0.12 1.92 c0.36 0.08 0.8 0 1.16 0 c0.4 -0.04 0.84 -0.04 1.28 -0.04 l5.6 0 c0.68 0 2.16 0.28 2.44 -0.52 c0.2 -0.64 -0.44 -1.56 -0.72 -2.16 c-0.16 -0.4 -0.36 -0.76 -0.6 -1.12 c-0.2 -0.36 -0.24 -0.8 -0.4 -1.16 c-0.28 -0.84 -0.72 -1.68 -1.08 -2.52 c-0.44 -1.04 -0.88 -2.12 -1.4 -3.12 c-0.16 -0.32 -0.4 -0.6 -0.64 -0.84 c-1.04 -0.88 -1.76 0.48 -2.08 1.24 c-0.24 0.56 -0.56 1.08 -0.84 1.64 c-0.24 0.56 -0.44 1.08 -0.72 1.6 c-0.36 0.6 -0.48 1.2 -0.72 1.8 c-0.28 0.68 -0.6 1.36 -0.88 2 c-0.16 0.44 -0.36 0.84 -0.52 1.28 z M354.79999999999995 26.880000000000003 c-0.56 0.4 -0.64 0.92 -1 1.48 c-0.44 0.68 -0.56 1.48 -0.56 2.24 c0 1.04 0.28 2.08 0.88 2.96 c0.32 0.44 0.72 0.84 1.16 1.12 c0.44 0.32 0.8 0.72 1.28 0.92 c1.2 0.64 2.6 0.92 4 0.92 c0.68 0 1.4 -0.04 2.08 -0.16 c0.36 -0.04 0.68 -0.16 1.04 -0.2 c0.76 -0.12 1.4 -0.4 2.12 -0.68 c0.4 -0.16 0.72 -0.4 0.96 -0.76 c0.2 -0.28 0.2 -0.76 0.6 -0.88 c0.8 -0.36 1.16 1 1.44 1.44 s0.52 0.96 0.88 1.36 c0.36 0.44 0.6 1.04 0.92 1.52 c0.08 0.16 0.2 0.32 0.2 0.52 c0.04 0.16 -0.04 0.32 -0.28 0.4 c-0.36 0.12 -0.84 -0.16 -1.2 -0.2 c-0.76 0 -1.52 0.28 -2.24 0.48 c-0.8 0.24 -1.72 0.6 -2.52 0.6 c-0.72 0 -1.28 0.28 -2 0.36 c-0.76 0.12 -1.56 0.16 -2.36 0.16 c-0.48 0 -0.92 -0.04 -1.36 -0.04 c-2.04 -0.12 -4.08 -0.56 -5.92 -1.4 s-3.12 -2.04 -4.2 -3.6 c-0.28 -0.4 -0.52 -0.88 -0.72 -1.36 c-0.28 -0.76 -0.44 -1.56 -0.52 -2.36 c-0.04 -0.32 -0.12 -0.64 -0.12 -0.96 s0.12 -0.64 0.16 -0.96 c0 -0.52 0.04 -1.08 0.16 -1.6 c0.28 -1.12 0.76 -2.24 1.48 -3.16 c0.44 -0.52 0.96 -1 1.52 -1.44 c0.52 -0.4 1.16 -0.6 1.68 -0.96 c0.52 -0.4 1.08 -0.64 1.72 -0.88 c1.92 -0.68 4.04 -0.96 6.12 -0.96 c2.4 0 4.6 0.36 6.88 1.08 c0.56 0.2 1.16 0.4 1.76 0.44 c0.52 0.04 1.04 -0.24 1.52 -0.12 c0.56 0.16 0.48 0.52 0.24 0.88 c-0.16 0.28 -0.32 0.6 -0.52 0.84 c-0.24 0.28 -0.4 0.4 -0.48 0.76 c-0.12 0.36 -0.32 0.64 -0.56 0.96 c-0.32 0.4 -0.52 0.8 -0.72 1.2 c-0.12 0.28 -0.36 0.76 -0.76 0.68 c-0.28 -0.04 -0.52 -0.28 -0.64 -0.52 c-0.2 -0.36 -0.36 -0.76 -0.76 -1 c-0.56 -0.4 -1.28 -0.6 -1.92 -0.76 c-0.68 -0.2 -1.36 -0.28 -2.04 -0.4 c-0.48 -0.08 -1.08 -0.2 -1.56 -0.16 c-0.48 0.08 -0.96 0.08 -1.44 0.16 c-0.96 0.12 -1.92 0.4 -2.8 0.84 c-0.6 0.36 -1.08 0.8 -1.6 1.2 z M386.91999999999996 21.48 c0.36 0.12 2.2 1.2 2.4 0.8 c0.16 -0.32 -0.52 -0.88 0.08 -1.04 c0.24 -0.08 0.6 0 0.84 0 c0.4 0 0.84 -0.04 1.28 0 c0.44 0.08 0.84 0 1.28 0 c0.56 -0.04 1.12 0 1.64 0 s1.84 -0.32 1.64 0.56 c-0.12 0.36 -0.6 0.48 -0.88 0.72 c-0.32 0.28 -0.36 0.64 -0.36 1.04 c0 0.56 0 1.16 0.04 1.72 c0.04 0.48 -0.04 0.92 -0.04 1.36 c-0.04 0.8 0 1.64 0 2.44 l0 3.28 c0 0.92 -0.2 1.84 -0.08 2.76 c0.08 0.84 0.08 1.72 0.08 2.6 c0 0.4 0.04 0.84 0.44 1.08 c0.28 0.2 0.76 0.2 1.04 0.44 c0.16 0.12 0.16 0.2 0.12 0.4 c-0.08 0.16 -0.2 0.28 -0.32 0.32 c-0.16 0.04 -0.32 0.04 -0.48 0.04 c-0.52 -0.04 -1.04 -0.04 -1.56 -0.08 s-1 0.04 -1.52 0.04 c-0.6 0.04 -1.2 0.04 -1.8 0.04 c-0.4 0 -1.12 0.12 -1.36 -0.28 c-0.16 -0.28 0.12 -1.04 -0.48 -1.04 c-0.32 0 -0.68 0.4 -0.96 0.52 c-0.4 0.2 -0.84 0.4 -1.28 0.56 c-1 0.32 -2.04 0.48 -3.08 0.6 c-0.36 0.04 -0.72 0.04 -1.12 0.04 c-2.2 0 -4.44 -0.48 -6.32 -1.52 c-0.8 -0.48 -1.36 -1.12 -2.08 -1.68 c-0.8 -0.64 -1.32 -1.52 -1.72 -2.4 c-0.6 -1.32 -0.88 -2.8 -0.88 -4.24 c0 -1.88 0.6 -3.6 1.64 -5.24 c0.92 -1.48 2.44 -2.64 4.16 -3.4 c0.8 -0.36 1.68 -0.52 2.52 -0.8 c0.96 -0.32 2 -0.32 3 -0.32 c1.4 0 2.8 0.2 4.12 0.68 z M389.23999999999995 29.880000000000003 l0 -0.08 c0.08 -0.84 -0.28 -1.8 -0.76 -2.48 c-0.88 -1.4 -2.48 -2.32 -4.24 -2.56 c-0.84 -0.12 -1.52 -0.12 -2.32 0.04 c-0.24 0.04 -0.48 0.08 -0.68 0.16 c-1.24 0.32 -2.32 1.08 -3.04 2 c-0.4 0.48 -0.68 1 -0.92 1.56 c-0.12 0.32 -0.32 0.64 -0.4 1 c-0.12 0.36 0 0.68 0 1.04 c0 1.36 0.44 2.76 1.4 3.88 c0.44 0.52 1 0.96 1.64 1.32 c0.52 0.24 0.8 0.48 1.4 0.52 c0.4 0.04 0.76 0.12 1.16 0.16 c0.92 0.08 1.88 0 2.76 -0.28 c1.72 -0.52 3.12 -1.72 3.72 -3.24 c0.36 -0.96 0.24 -2.04 0.28 -3.04 z M420.71999999999997 19.52 c0 0.48 -0.04 0.92 -0.08 1.36 c-0.16 1.12 0.08 2.32 0.08 3.44 l0 4.04 l0 3.2 c0 1 0.12 2.04 0.04 3 c-0.12 1.04 -0.04 2.12 -0.04 3.16 c0 0.32 0 0.72 0.28 1 c0.16 0.12 0.32 0.16 0.48 0.24 c0.36 0.2 0.76 0.68 0.44 0.92 c-0.08 0.04 -0.12 0.08 -0.24 0.12 c-0.4 0.08 -0.88 0 -1.28 0 c-0.52 0 -1.04 0.04 -1.52 -0.08 c-0.4 -0.08 -0.68 0 -1.08 0.04 c-0.44 0.08 -0.88 0 -1.32 0.04 c-0.32 0 -0.68 0.08 -1 0 c-0.68 -0.2 -0.24 -0.76 -0.44 -1.12 c-0.24 -0.44 -0.88 0.16 -1.16 0.28 c-0.48 0.28 -1 0.48 -1.56 0.68 c-1.12 0.36 -2.24 0.44 -3.4 0.52 c-1.24 0.12 -2.48 -0.04 -3.64 -0.32 c-1.08 -0.24 -2.36 -0.6 -3.24 -1.24 c-0.28 -0.24 -0.52 -0.52 -0.84 -0.72 c-0.44 -0.24 -0.84 -0.48 -1.2 -0.84 c-0.56 -0.6 -1.04 -1.2 -1.44 -1.88 c-0.92 -1.68 -1.12 -3.44 -1.16 -5.32 c0 -2 0.76 -4.04 2.12 -5.64 c0.4 -0.44 0.84 -0.84 1.32 -1.24 c0.48 -0.36 0.8 -0.8 1.4 -0.96 c0.68 -0.2 1.28 -0.52 1.92 -0.72 c1.4 -0.48 2.88 -0.68 4.32 -0.68 c1.32 0 2.64 0.2 3.88 0.6 c0.52 0.16 1.04 0.36 1.56 0.64 c0.24 0.12 0.84 0.56 1.12 0.28 c0.16 -0.16 0.04 -0.68 0.04 -0.88 c0 -1.04 0.16 -2 0.04 -3.04 c-0.08 -0.64 -0.04 -1.28 -0.04 -1.92 c0 -0.44 -0.04 -0.8 -0.4 -1.12 c-0.24 -0.2 -0.76 -0.44 -0.92 -0.72 c-0.36 -0.68 1.32 -0.44 1.68 -0.44 c0.28 0 0.6 0.04 0.88 0.04 c0.24 0.04 0.48 -0.08 0.72 -0.08 s0.44 0.04 0.68 0.04 c0.68 0 1.44 0.08 2.16 0 c0.52 -0.04 0.8 0.08 0.84 0.6 c0.04 0.24 0 0.52 0 0.76 l0 1.24 l0 2.72 z M415.0799999999999 31.240000000000002 l0 -1.36 c0 -0.8 -0.28 -1.44 -0.52 -2.2 c-0.08 -0.28 -0.12 -0.44 -0.32 -0.68 c-0.24 -0.28 -0.52 -0.48 -0.76 -0.72 c-0.4 -0.36 -0.88 -0.68 -1.4 -0.96 l-0.88 -0.36 c-0.64 -0.16 -1.28 -0.28 -1.92 -0.28 c-1.76 -0.04 -3.36 0.48 -4.6 1.68 c-0.24 0.2 -0.52 0.36 -0.72 0.6 c-0.28 0.28 -0.52 0.68 -0.68 1.04 c-0.36 0.8 -0.56 1.68 -0.56 2.56 c0 1.32 0.48 2.6 1.36 3.68 c0.52 0.64 1.2 1.16 2 1.52 c0.4 0.2 0.84 0.4 1.28 0.44 c1.2 0.2 2.32 0.32 3.56 0.04 c0.6 -0.16 1.2 -0.44 1.76 -0.76 c0.32 -0.2 0.72 -0.48 0.96 -0.8 c0.16 -0.24 0.28 -0.52 0.48 -0.76 c0.24 -0.2 0.4 -0.36 0.52 -0.64 c0.28 -0.64 0.44 -1.36 0.44 -2.04 z M446.47999999999996 31.240000000000002 c0.16 0.2 0.44 0.24 0.56 0.48 c0.32 0.88 -0.84 0.64 -1.36 0.64 l-4.2 0 l-3.72 0 c-0.4 0 -0.8 -0.12 -1.2 -0.12 c-0.56 0.08 -1.12 0.16 -1.68 0.12 c-0.88 -0.08 -1.8 0 -2.72 0 l-1.6 0 c-0.32 0 -0.64 -0.04 -0.92 0.16 c-0.76 0.52 -0.2 1.08 0.16 1.64 c0.32 0.44 0.72 0.8 1.2 1.12 c0.24 0.2 0.44 0.48 0.76 0.6 c0.36 0.16 0.84 0.24 1.2 0.36 c0.92 0.28 1.88 0.4 2.84 0.4 c0.64 0 1.28 -0.04 1.92 -0.12 c1.28 -0.12 2.72 -0.32 3.84 -0.88 c0.4 -0.2 0.84 -0.52 1 -0.92 c0.12 -0.36 0.08 -0.76 0.56 -0.88 c0.6 -0.08 0.88 0.76 1.08 1.12 c0.2 0.32 0.4 0.72 0.6 1.08 c0.16 0.32 0.44 0.64 0.64 0.96 c0.28 0.48 0.96 1.2 0.84 1.76 c-0.16 0.72 -0.84 0.2 -1.32 0.16 c-0.76 -0.08 -1.52 0.2 -2.2 0.4 c-2.28 0.76 -4.04 1.12 -7.32 1.12 c-2.72 0 -5.4 -0.44 -7.72 -1.8 c-0.68 -0.36 -1.28 -0.84 -1.84 -1.36 c-1.12 -1.04 -1.92 -2.32 -2.32 -3.76 c-0.28 -0.96 -0.4 -1.96 -0.4 -2.96 c0 -1.04 0.16 -2.12 0.52 -3.12 c0.24 -0.68 0.56 -1.32 1 -1.92 c0.2 -0.28 0.36 -0.44 0.64 -0.64 c0.4 -0.24 0.44 -0.64 0.72 -0.92 c0.36 -0.36 0.8 -0.68 1.24 -0.96 c0.8 -0.56 1.72 -1.04 2.68 -1.36 c1.64 -0.6 3.44 -0.88 5.24 -0.88 c0.84 0 1.72 0.04 2.56 0.2 c0.4 0.04 0.84 0.12 1.2 0.24 c0.24 0.08 0.48 0.24 0.72 0.36 c0.2 0.04 0.4 0.04 0.64 0.08 c0.4 0.08 0.84 0.36 1.2 0.56 c0.76 0.36 1.44 0.88 2.04 1.44 c0.68 0.64 1.2 1.36 1.64 2.16 c0.2 0.44 0.44 0.88 0.56 1.36 c0.04 0.16 0.04 0.32 0.08 0.48 c0.08 0.4 0.2 0.72 0.28 1.08 c0.04 0.52 0.08 1 0.08 1.52 c0 0.32 0 0.72 0.28 1 z M440.59999999999997 28.52 c0.08 -0.12 0.12 -0.24 0.08 -0.48 c-0.28 -0.88 -0.88 -1.56 -1.56 -2.2 c-0.52 -0.52 -1.12 -0.68 -1.88 -0.88 c-0.68 -0.2 -1.4 -0.28 -2.08 -0.28 c-1.52 0 -2.96 0.36 -4.16 1.2 c-0.6 0.44 -1.08 0.96 -1.44 1.56 c-0.16 0.24 -0.36 0.52 -0.36 0.8 c-0.04 0.48 0.4 0.48 0.8 0.44 l1.84 0 c0.6 0 1.24 -0.08 1.84 -0.04 c0.64 0 1.28 0.04 1.92 0.04 l2.96 0 c0.52 0 1.72 0.24 2.04 -0.16 z M475.72 37.72 l0 -3.44 c0 -0.92 0 -1.8 0.08 -2.64 c0.12 -1.04 -0.08 -2.08 -0.08 -3.08 c0 -1.28 -0.36 -2.8 -1.76 -3.44 c-0.56 -0.24 -1.16 -0.36 -1.76 -0.32 c-0.48 0 -1.12 0.2 -1.52 0.36 c-0.52 0.2 -1.04 0.68 -1.36 1.08 c-0.64 0.84 -0.88 1.92 -0.88 2.92 c0.04 0.52 -0.12 1.04 -0.08 1.56 c0 0.4 0.12 0.8 0.12 1.24 l0 2.64 l0 3.08 c0 0.36 0 0.76 0.32 1.04 s0.96 0.2 1.2 0.6 s-0.36 0.76 -0.76 0.76 c-0.52 0.04 -1.08 -0.08 -1.6 -0.08 l-4.84 0 c-0.44 0 -1.52 0.24 -1.64 -0.36 c-0.08 -0.52 0.68 -0.48 1 -0.68 c0.44 -0.24 0.64 -0.76 0.64 -1.24 l0 -9.16 c0 -1.96 -0.96 -3.76 -3.36 -3.76 c-1.16 0.04 -1.88 0.44 -2.72 1.08 c-0.32 0.28 -0.52 0.72 -0.68 1.08 c-0.36 0.76 -0.48 1.6 -0.48 2.44 l0 0.72 c0 0.44 -0.12 0.84 -0.04 1.28 c0.04 0.36 0.04 0.76 0.04 1.12 l0 2.36 c0 0.48 0.12 1.04 0.08 1.52 c0 0.44 -0.08 0.84 -0.08 1.28 c0 0.36 0.08 0.72 0.32 1 c0.32 0.32 1.12 0.28 1.08 0.84 c0 0.52 -0.88 0.44 -1.28 0.52 c-0.56 0.08 -1.16 0 -1.72 0 c-1.56 0.04 -3.08 0.04 -4.64 -0.04 c-0.48 0 -1.12 -0.4 -0.68 -0.88 c0.2 -0.24 0.64 -0.16 0.88 -0.36 c0.32 -0.24 0.36 -0.68 0.36 -1.04 l0 -3 l0 -4.88 c0 -0.8 -0.08 -1.6 0 -2.4 c0.04 -0.6 0.24 -1.32 0.08 -1.88 c-0.2 -0.64 -0.08 -1.32 -0.08 -2 c0 -0.32 -0.08 -0.72 -0.36 -0.96 c-0.2 -0.2 -0.52 -0.24 -0.76 -0.4 c-0.28 -0.24 -0.52 -0.6 -0.16 -0.84 c0.32 -0.24 0.84 -0.12 1.24 -0.12 l2.28 0 l2.24 0 c0.24 0 0.56 -0.04 0.8 0 c0.64 0.12 0.2 0.52 0.56 0.76 c0.28 0.2 1 -0.08 1.28 -0.2 c1.24 -0.52 2.48 -0.88 3.88 -0.88 c1.36 0 2.8 0.16 4.04 0.68 c0.64 0.24 1.12 0.76 1.76 1 c0.8 0.32 1.32 -0.04 2 -0.4 c0.8 -0.44 1.72 -0.88 2.64 -0.96 c0.84 -0.08 1.64 -0.36 2.48 -0.32 c1.72 0 3.56 0.24 4.96 1.16 c1.2 0.76 1.96 1.96 2.32 3.24 c0.12 0.44 0.28 0.92 0.32 1.4 c0.08 0.44 0 0.88 0 1.32 l0 2.92 l0 2.6 c0 0.4 0 0.8 -0.04 1.2 c-0.08 0.96 0.04 1.96 0.04 2.92 c0 0.4 0.04 0.8 0.32 1.08 c0.32 0.24 0.76 0.28 0.92 0.64 c0.36 0.92 -1.56 0.6 -2.08 0.6 l-2.52 0 c-0.6 0 -1.32 -0.28 -1.88 -0.12 c-0.48 0.16 -0.88 0.28 -1.4 0.12 c-0.36 -0.08 -0.6 -0.28 -0.44 -0.64 c0.2 -0.36 0.72 -0.32 1.04 -0.56 c0.32 -0.28 0.36 -0.68 0.36 -1.08 z M506.96 22.56 c-0.4 0.32 -0.32 0.76 -0.36 1.2 c-0.08 0.48 -0.2 1.04 -0.12 1.52 c0.12 0.48 0.12 0.92 0.12 1.4 l0 3.52 l0 3.36 l0 1.44 c0.04 0.36 -0.04 0.72 -0.08 1.08 c0 0.32 0.08 0.64 0.08 1 l0 1.08 c0 0.64 -0.04 1.32 -0.16 2 c-0.2 1.08 -0.6 2.16 -1.2 3.12 c-0.28 0.48 -0.52 0.8 -0.96 1.16 c-0.4 0.32 -0.64 0.8 -1.04 1.12 c-0.36 0.32 -0.76 0.6 -1.16 0.84 c-0.84 0.48 -1.72 0.84 -2.68 1.08 c-1.4 0.36 -2.84 0.52 -4.32 0.52 c-1.56 0 -3.16 -0.2 -4.68 -0.52 c-0.36 -0.08 -0.64 -0.2 -1 -0.32 c-0.4 -0.12 -0.84 -0.12 -1.24 -0.24 c-0.56 -0.2 -1.16 -0.44 -1.8 -0.52 c-0.44 -0.04 -1.6 0.4 -1.88 -0.16 c-0.16 -0.32 0.36 -0.76 0.52 -1 c0.4 -0.64 1.08 -1.2 1.32 -1.92 c0.12 -0.36 0.28 -0.68 0.48 -1 c0.24 -0.4 0.36 -0.96 0.8 -1.2 c0.6 -0.32 0.8 0.2 0.84 0.64 c0 0.52 0.48 1.04 1 1.28 c1.72 0.64 3.72 1 5.28 1 c0.48 0 0.96 -0.12 1.4 -0.08 c0.48 0 1.04 -0.24 1.48 -0.4 c0.68 -0.2 1.28 -0.56 1.8 -1 c0.56 -0.52 1 -1.12 1.24 -1.8 c0.12 -0.32 0.32 -1.36 -0.12 -1.6 c-0.08 -0.04 -0.2 -0.08 -0.36 -0.04 c-0.2 0.04 -0.44 0.28 -0.64 0.4 c-0.32 0.16 -0.64 0.28 -0.96 0.4 c-1.24 0.44 -2.6 0.6 -3.92 0.6 c-0.92 0 -1.8 -0.16 -2.72 -0.24 c-0.96 -0.12 -1.92 -0.44 -2.76 -0.88 c-1.52 -0.84 -2.48 -2.16 -3 -3.68 c-0.24 -0.76 -0.32 -1.64 -0.32 -2.4 l0 -3.04 c0 -0.84 -0.08 -1.76 0 -2.6 s0.2 -1.72 0.04 -2.56 c-0.12 -0.48 -0.04 -1 -0.04 -1.48 c0 -0.52 -0.04 -1 -0.6 -1.2 c-0.4 -0.16 -0.96 -0.36 -0.84 -0.84 s0.88 -0.24 1.24 -0.24 l2.36 0 l4.04 0 c0.4 0 1.04 -0.08 0.8 0.52 c-0.16 0.4 -0.52 0.4 -0.88 0.6 c-0.4 0.24 -0.44 0.72 -0.44 1.16 l0 3.12 l0 2.12 c0.04 0.6 -0.04 1.2 0 1.8 c0.08 0.68 0 1.4 0 2.08 c0 2.48 1.48 3.8 4.36 3.76 c2.68 0 5.04 -1.88 5.04 -4.6 l0 -2.52 c0 -0.64 0.12 -1.28 0.12 -1.96 c0 -0.64 -0.12 -1.32 -0.12 -2 l0 -1.8 c0 -0.44 -0.04 -0.92 -0.48 -1.16 c-0.4 -0.24 -0.84 -0.12 -1.12 -0.52 c-0.52 -0.84 1.4 -0.6 1.76 -0.6 l3.48 0 l2.64 0 c0.24 0 0.76 -0.08 0.92 0.12 c0.4 0.6 -0.92 0.88 -1.16 1.08 z"></path></g></svg>