<svg version="1.1" class="mkdf-animated-svg" id="mkdf-animated-svg-236" xmlns="http://www.w3.org/2000/svg" xmlns:xlink="http://www.w3.org/1999/xlink" x="0" y="0" width="147px" height="147px" viewBox="0 0 147 147" enable-background="new 0 0 147 147" xml:space="preserve"><path fill="#fff" d="M49.951,62.8c-5.322-1.289-9.432-3.241-14.178-5.502c-6.921-3.292-8.698-3.77-10.935-5.525
		c-1.345-1.047-4.637-4.412-4.919-6.035c-0.331-1.872,1.387-3.289,2.962-2.679c0.552,0.216,3.454,2.332,4.372,3.557
		c5.078,6.792,4.579,3.13,24.549,7.903c1.177,0.283,0.756,2.074-0.434,1.793c-19.681-4.713-19.982-1.072-25.592-8.594
		c-0.674-0.895-3.305-2.838-3.57-2.94c-0.228-0.096-0.552,0.205-0.474,0.643c0.061,0.351,0.366,0.742,0.643,1.084
		c4.092,5.167,4.717,4.623,14.19,9.129c4.656,2.217,8.682,4.133,13.818,5.374C51.556,61.29,51.153,63.089,49.951,62.8z"></path>
<path fill="#fff" d="M76.188,131.869c-0.68-1.021-0.343-2.088-0.054-3.264c1.021-4.439-2.824-4.377-2.733-6.863
		c0.071-2.007,2.421-2.004,1.994-3.473c-0.463-1.568-1.076-3.136-1.677-4.65c-5.833-14.851,1.069-12.282-5.257-15.469
		c-10.057-5.059-20.275-20.694-15.589-42.289c0.263-1.231,0.528-0.823,14.358,1.977c14.651,2.965,10.394,1.528,14.231,1.961
		c-0.967-2.41-1.171-4.881-0.607-7.258c-1.729-3.223-3.496-2.448-9.39-8.948c-4.439-4.896-5.653-5.091-9.444-8.486
		c-1.567-1.402-2.084-1.772-3.49-1.016c-1.658,0.898-2.68-0.771-1.85-1.922c-0.89,0.066-2.866,0.346-2.938,0.346
		c-1.724-0.027-2.392-2.104,0.391-2.809c4.055-1.037,5.028-0.721,7.474,0.736c2.175,1.297,2.775,1.063,7.36,4.163
		c11.077,7.489,10.35,10.544,16.058,12.313c1.911,0.592,2.518,1.1,2.518,1.1s0.18-0.294,0.018-0.949
		c-0.071-0.271-0.155-0.388-0.181-0.408c-0.168,0.216-2.199-0.015-3.291-1.322c-2.914,0.952-5.829-4.353-2.908-5.65
		c-0.702-4.71,5.683-7.131,8.88-6.39c1.676,0.388,2.602,1.574,3.221,2.565c0.36,0.58,1.165,1.027,1.729,0.749
		c0.872-0.427,1.731,0.616,1.142,1.385c-0.072,1.138,0.24,1.484,0.475,1.763c1.467,1.758,0.858,3.313-1.194,3.878
		c-1.094,0.297-0.703,0.39-0.902,2.763c0.577-0.883,2.127-2.114,2.428-2.595c0.853-1.382,2.229-11.922,6.656-17.248
		c2.813-3.385,9.197-6.062,10.43-5.939c1.261,0.111,2.379,2.004-0.542,3.13c0.182,1.3-1.436,1.483-3.189,2.082
		c-3.513,1.195-2.927-0.367-6.866,13.755c-1.154,4.103-0.679,6.96-3.616,11.075c-2.47,3.463-1.287,3.764-0.962,6.663
		c0.505,4.662-3.617,8.08-6.849,11.502c-1.616,1.712-2.56,2.707-5.179,4.935c1.153,2.097,1.592,4.464,2.072,6.813
		c1.196,5.857,2.86,11.676,4.934,17.291c0.162,0.432-0.025,0.915-0.434,1.132c-4.38,2.322-9.468,4.68-14.899,3.81
		c-0.36,11.336,4.397,17.199,2.583,25.388C79.895,133.609,77.418,133.732,76.188,131.869z M54.487,57.141
		C50.427,77.598,60.23,91.935,69.29,96.504c6.927,3.49,1.917,3.578,4.603,12.217c2.546,8.194,5.059,9.922,2.037,12.348
		c-0.902,0.725-0.962,0.77,0.12,1.671c2,1.673,2.385,4.214,1.777,6.688c-0.156,0.617-0.36,1.202,0.065,1.639
		c0.452-0.381,1.136-2.058,1.401-3.269c1.297-5.866-1.34-11.73-2.248-17.704c-0.21-1.4-0.901-8.441,0.036-9.141
		c0.216-0.166,0.499-0.226,0.77-0.16c4.95,1.189,9.617-0.777,13.986-3.052c-5.293-14.629-4.446-19.834-6.964-23.671
		c-0.259-0.39-0.181-0.91,0.176-1.21c20.539-17.266,7.016-14.482,13.275-23.269c1.154-1.618,1.779-2.489,2.607-7.083
		c0.596-3.304,3.672-13.682,4.116-14.794c-4.224,5.071-5.317,15.112-6.53,17.065c-1.004,1.619-2.139,1.469-3.101,3.866
		c-0.379,1.258-0.301,1.97-1.1,2.139c-2.554,0.531-1.55-3.908-1.556-5.873c0-1.472,0.366-2.556,2.175-3.052
		c0.805-0.219,0.799-0.289,0.271-0.923c-0.488-0.583-0.812-1.084-0.902-2.409c-2.757-0.306-2.468-2.925-4.655-3.434
		c-2.801-0.646-8.135,2.046-6.387,5.092c0.499,0.865-0.552,1.796-1.351,1.192c-0.505,0.292,0.762,2.605,1.658,2.184
		c0.047-0.023,0.09-0.053,0.096-0.078l0,0c0.396-1.15,2.139-0.553,1.741,0.601l0,0c0.086,0.249,1.028,0.811,1.407,0.775
		c4.24-0.286,2.985,6.861-0.613,4.505c-0.613-0.402-1.827-0.702-2.548-0.955c-5.275-1.847-5.208-5.172-15.715-12.276
		c-1.706-1.151-3.726-2.436-5.672-3.244c7.617,5.981,9.443,8.236,10.562,9.465c5.852,6.456,8.037,5.713,9.947,9.928
		c0.169,0.372,0.074,0.796-0.215,1.057c-0.601,3.082,0.444,5.771,1.466,7.519c0.493,0.832-0.48,1.757-1.286,1.241
		c-0.99-0.627-2.403-0.526-3.664-0.501C75.172,61.626,73.814,61.049,54.487,57.141z M60.567,31.969
		c-0.45-0.264-0.877-0.517-1.316-0.706c0.062,0.204,0.073,0.423,0.036,0.637C59.72,31.837,60.141,31.858,60.567,31.969z
		 M110.623,23.763c-0.041,0.021-0.077,0.039-0.126,0.057l0.132-0.042C110.629,23.771,110.629,23.769,110.623,23.763z"></path>
<path fill="#fff" d="M24.191,89.589c-5.257-10.444-6.844-21.886-5.204-32.787c0.181-1.21,2.008-0.925,1.827,0.276
		c-1.586,10.508-0.067,21.57,5.022,31.682C26.39,89.859,24.73,90.664,24.191,89.589z"></path>
<path fill="#fff" d="M33.347,102.617c-2.74-2.894-5.161-6.086-7.204-9.49c-0.63-1.041,0.955-1.996,1.58-0.949
		c1.972,3.293,4.313,6.374,6.964,9.171C35.521,102.232,34.188,103.502,33.347,102.617z"></path>
<path fill="#fff" d="M62.748,118.744c-9.198-1.758-17.854-5.906-25.027-11.991c-0.933-0.784,0.257-2.195,1.188-1.406
		c6.934,5.882,15.297,9.889,24.188,11.587c0.504,0.096,0.828,0.576,0.733,1.077C63.733,118.504,63.265,118.838,62.748,118.744z"></path>
<path fill="#fff" d="M90.936,114.776c15.632-5.611,27.852-18.441,32.695-34.313c0.36-1.166,2.12-0.628,1.766,0.535
		c-5.011,16.432-17.662,29.705-33.835,35.514C90.408,116.924,89.789,115.188,90.936,114.776z"></path>
<path fill="#fff" d="M126.021,74.494c-1.58-0.252-0.097-1.748-0.097-9.474c0-4.034-0.589-5.133,0.674-5.232
		c0.504-0.037,0.954,0.339,0.996,0.847c0.349,4.431,0.156,8.853-0.516,13.096C126.994,74.232,126.524,74.576,126.021,74.494z"></path>
<path fill="#fff" d="M124.97,54.975c-1.659-8.621-5.503-16.771-11.114-23.571c-0.775-0.943,0.649-2.112,1.424-1.174
		c5.804,7.038,9.78,15.476,11.498,24.397C127.006,55.822,125.197,56.17,124.97,54.975z"></path></svg>