<svg version="1.1" class="mkdf-animated-svg" id="mkdf-animated-svg-789" xmlns="http://www.w3.org/2000/svg" xmlns:xlink="http://www.w3.org/1999/xlink" x="0" y="0" width="147px" height="147px" viewBox="0 0 147 147" enable-background="new 0 0 147 147" xml:space="preserve"><path fill="#fff" d="M80.671,71.997c-2.987-4.059,1.517-7.858,2.979-10.762c2.001-3.971-0.692-6.137-0.51-8.653
c0.172-2.315,2.276-3.818,3.17-5.27c5.071-8.205,3.478-14.815,4.684-21.582c0.526-2.916-1.906-7.402-5.774-8.936
c0.298,0.407,0.234,0.969-0.128,1.302c1.176-0.098,2.923-0.07,3.939,2.29c2.63,6.096-2.288,12.828-2.401,19.556
c-0.039,2.475-0.234,3.771-4.244,6.115c-1.023,0.601-1.798,1.569-2.771,2.338c-1.011,0.803-2.224-0.725-1.213-1.525
c1.175-0.934,1.627-1.689,2.999-2.497c4.268-2.496,2.936-2.83,3.418-6.778c0.642-5.195,4.497-11.63,2.427-16.436
c-0.909-2.097-2.371-0.576-4.041-1.201c-1.614-0.6-1.729-1.772-0.979-2.521c-1.378-0.321-3.438-0.639-3.563-2.701
c-0.02-0.292,0.095-0.578,0.312-0.775c0.47-0.432,1.264-0.178,1.961-0.083c2.721,0.372,5.288,0.728,7.721,2.681
c2.587,2.083,4.887,6.022,4.257,9.516c-1.156,6.461,0.374,13.654-4.943,22.26c-0.979,1.584-2.77,2.877-2.885,4.392
c-0.178,2.383,3.686,4.841-1.308,11.925c-1.856,2.63-2.885,4.358-1.537,6.188C83.001,71.876,81.433,73.039,80.671,71.997z"></path>
<path fill="#fff" d="M71.63,136.125c-2.263-7.102,1.772-12.051-1.881-21.143c-4.213-10.508,0.826-10.051-3.494-21.703
c-1.594-4.307-1.938-5.762-1.905-8.043c0.012-0.946,0.037-2.682-0.421-3.106c-3.78-0.839-15.533-1.747-15.907-3.882
c-0.548-3.101,8.315-13.557,18.825-12.09c0.241,0.031,0.564,0.076,0.653,0.051c0,0,0.642-0.839,0.647-3.176
c0.013-2.269-1.028-4.969-1.359-7.447c-0.336-2.471,1.334-2.223-0.774-5.555c-2.662-4.199-5.755-8.348-6.55-13.659
c-1.95-13.141,0.323-16.573,2.015-19.117c1.98-2.996,7.089-3.933,9.396-3.615c1.791,0.248,2.008,1.563,1.194,2.331
c-0.293,0.277-2.789,0.697-3.234,0.811c0.331,0.775-0.063,1.78-1.506,2.202c-1.625,0.477-2.903,1.607-3.603,3.18
c-0.273,0.613-0.215,1.41-0.152,2.253c0.317,4.412-0.616,4.057,1.208,8.468c2.345,5.687,0.717,3.974,2.591,7.671
c2.415,4.765,3.045,3.418,4.594,4.81c0.604-1.278,0.262-3.574-0.057-3.911c0,0-0.357-0.137-0.444-0.168
c-1.354-0.572-1.735-1.668-1.83-2.701c-3.793,0.178-3.031-7.497,0.966-7.092c0.857-1.09,1.995-1.755,3.468-2.027
c6.176-1.146,5.306,4.686,7.497,5.883c1.855,0.991-0.381,2.064,0.051,3.364c0.483,1.429-0.337,2.754-2.332,2.354
c-0.184-0.039-0.463-0.111-0.59,0.054c0,0-0.07,1.921-0.07,2.017c0.052,2.208,1.049,4.981,3.19,5.623
c1.232,0.369,0.673,2.233-0.56,1.868c-4.949-1.48-5.171-9.272-4.123-10.673c0.616-0.823,1.601-1.007,2.591-0.788
c-0.278-0.976-0.032-1.763,0.331-2.475c-2.649-2.005-1.131-6.137-5.629-5.312c-1.188,0.219-1.981,0.752-2.585,1.731
c-0.801,1.303-1.868-0.779-2.561,1.389c-0.478,1.476,0.088,2.414,0.399,2.093c0.248-1.068,1.893-0.921,1.893,0.289
c-0.08,4.782,1.99,0.772,2.612,5.712c0.33,2.589-0.661,5.209-2.363,4.961c-0.578-0.083-0.801-0.479-1.232-0.807
c-0.21-0.122-0.794-0.4-1.036-0.519c-2.402-1.216-3.386-3.856-4.429-5.778c-0.698-1.29-0.646-2.229-0.972-3.528
c-0.444-1.795-1.334-3.51-1.988-5.372c-0.724-2.064-0.427-4.259-0.488-6.226c-0.038-1.3-0.324-2.625,0.266-3.958
c0.751-1.677,1.995-2.979,3.576-3.761c-0.278-0.248-0.394-0.635-0.291-1.001c-5.705,2.787-4.796,12.98-3.832,19.479
c0.726,4.86,3.578,8.669,6.252,12.884c1.526,2.408,1.569,3.211,1.208,4.984c-0.636,3.126,2.541,7.877,0.659,12.599
c-0.895,2.249-2.508,1.474-3.81,1.455c-10.185-0.172-15.344,8.298-15.727,9.599c1.646,0.636,8.089,1.628,10.953,2.066
c3.489,0.533,3.66,0.578,3.927,0.736c2.002,1.182,1.283,4.784,1.467,6.2c0.821,6.208,4.106,7.669,3.68,17.396
c-0.564,12.954,4.294,8.316,3.101,22.758c-0.234,2.84-0.457,5.533,0.19,8.088h1.373c2.79-7.562,1.104-16.132,0.146-24.264
c-1.05-8.958-1.373-26.086-0.071-27.07c0.224-0.166,0.504-0.229,0.775-0.178c4.919,0.952,14.396,2.49,19.258,2.572
c0.78-5.763-2.829-11.283-7.968-14.085c-1.481-0.813-4.874-2.662-3.755-5.596c0.458-1.201,2.28-0.509,1.822,0.692
c-0.85,2.229,4.124,2.726,8.152,7.497c3.132,3.723,4.415,8.341,3.52,12.668c-0.097,0.45-0.483,0.774-0.945,0.774
c-5.053,0.044-14.424-1.474-19.384-2.407c-2.009,26.932,5.266,37.75,0.023,50.73c-0.361,0.908-1.435,0.608-3.679,0.621
C72.125,136.805,71.756,136.52,71.63,136.125z"></path>
<path fill="#fff" d="M74.024,100.109c1.348-7.885,4.314-8.252,5.87-13.004c0.407-1.233,2.255-0.617,1.854,0.603
c-1.727,5.261-4.529,5.261-5.8,12.726C75.733,101.711,73.809,101.374,74.024,100.109z"></path>
<path fill="#fff" d="M70.111,135.655c-3.119-2.032-1.341-5.769-2.307-7.624c-0.692-1.315-5.368-4.301-1.372-7.229
c0.572-0.427,0.705-0.521,0.451-1.455c-2.644-9.649-1.716-14.021,0.463-22.21c0.332-1.246,2.212-0.75,1.881,0.502
c-2.083,7.846-2.979,12.025-0.463,21.193c1.295,4.721-4.441,2.58-0.547,6.665c2.631,2.764,1.633,3.983,1.899,6.646
c0.096,0.939,0.948,2.293,1.816,2.007c1.228-0.399,1.83,1.448,0.61,1.85C71.724,136.271,70.861,136.139,70.111,135.655z"></path>
<path fill="#fff" d="M84.025,123.864c7.629-1.607,14.967-5.032,21.23-9.897c1.018-0.789,2.211,0.749,1.194,1.537
c-6.491,5.051-14.109,8.602-22.025,10.271C83.161,126.036,82.773,124.131,84.025,123.864z"></path>
<path fill="#fff" d="M113.979,105.389c2.483-3.094,4.607-6.454,6.315-10c0.552-1.156,2.313-0.311,1.753,0.846
c-1.766,3.678-3.97,7.166-6.549,10.375C114.692,107.613,113.173,106.393,113.979,105.389z"></path>
<path fill="#fff" d="M124.076,84.729c6.2-26.023-8.285-50.272-29.392-59.802c-1.175-0.534-0.368-2.306,0.807-1.779
c21.9,9.892,36.906,35.057,30.479,62.033C125.669,86.438,123.776,85.986,124.076,84.729z"></path>
<path fill="#fff" d="M78.776,20.625c-6.671-0.696-8.05,0.364-8.1-1.205c-0.019-0.541,0.407-0.988,0.946-1.003
c2.459-0.076,4.93,0.016,7.357,0.267C80.252,18.818,80.073,20.746,78.776,20.625z"></path>
<path fill="#fff" d="M38.524,30.981C43.872,26.492,50.2,23.02,56.808,20.93c1.232-0.387,1.817,1.471,0.59,1.858
c-6.371,2.011-12.464,5.362-17.623,9.685C38.783,33.303,37.539,31.807,38.524,30.981z"></path>
<path fill="#fff" d="M56.135,124.194c-34.199-11.41-49.219-54.231-25.648-84.84c0.787-1.023,2.332,0.168,1.544,1.188
c-4.619,6.004-7.979,13.095-9.702,20.508c-6.035,25.92,9.085,52.846,34.422,61.295C57.977,122.752,57.36,124.607,56.135,124.194z"></path></svg>