<svg version="1.1" class="mkdf-animated-svg" id="mkdf-animated-svg-123" xmlns="http://www.w3.org/2000/svg" xmlns:xlink="http://www.w3.org/1999/xlink" x="0" y="0" width="147px" height="147px" viewBox="0 0 147 147" enable-background="new 0 0 147 147" xml:space="preserve"><path fill="#fff" d="M81.283,44.392c-3.081,0,2.628-12.714,2.828-17.778c0.062-1.476,0.514-2.977,0.945-4.427
				c2.105-7.029,1.86-10.42,4.286-10.701c0.559-0.062,1.112,0.12,1.56,0.517c2.532,2.259-1.096,4.494,0.426,8.108
				c0.977,2.32,1.49,3.105-1.136,5.679c-3.549,3.488,0.604,13.612-1.845,13.623c-0.468,0.003-0.86-0.38-0.86-0.852
				c-0.017-3.246-1.845-10.702,1.505-13.991c0.519-0.508,1.379-1.27,1.401-1.988c0.045-1.143-1.905-2.783-0.922-6.28
				c0.186-0.653,0.614-1.606,0.614-2.249c0-0.322-0.238-0.87-0.541-0.862c-0.264,0.029-0.537,0.518-0.732,1.306
				c-2.723,10.826-2.919,10.525-2.985,12.188c-0.162,4.01-1.939,7.82-2.846,11.531C81.752,43.229,82.58,44.392,81.283,44.392z"></path>
<path fill="#fff" d="M87.343,65.974c-1.505-0.208-0.089-1.649-0.197-9.497c-0.027-2.429,0.074-5.839,0.174-9.732
				c0.012-0.475,0.414-0.825,0.872-0.838c1.454,0.031,0.555,1.739,0.672,10.548c0.037,2.923-0.146,5.88-0.555,8.793
				C88.241,65.71,87.812,66.041,87.343,65.974z"></path>
<path fill="#fff" d="M74.071,139.004c-1.078-0.975-0.385-2.265-0.368-5.048c0-0.929,0.29-1.867,0.548-2.7
				c2.717-8.837,6.797-15.248,7.558-28.396c-1.477-5.444-4.142-11.61-4.651-17.374c-1.447-1.419-2.057-1.078-5.601-0.446
				c-5.656,1.017-7.076,0.413-9.469-1.101c-4.003-2.538-6.752-1.057-8.194-5.406c-0.331,0.806-0.957,3.047-1.122,3.41
				c-2.391,5.242-6.39,9.569-8.683,11.05c-1.639,1.052-3.048,1.962-4.08,3.696c-0.537,0.895-1.22,1.525-2.203,1.174
				c-0.487,0.553-1.923,2.381-2.6,2.644c-0.664,0.258-1.402,0.006-1.716-0.587c-0.223-0.425-0.14-0.609,0.525-2.057
				c1.314-2.857,2.415-3.443,4.689-5.602c3.83-3.633,6.389-8.77,9.354-13.286c1.003-1.538,1.932-2.593,2.077-4.216
				c0.292-3.286,1.005-4.364,2.253-5.751c0.889-0.99,1.688-2.041,0.944-3.175c-1.442-2.175-4.191,0.094-5.489-1.604
				c-0.479-0.632-0.323-1.392-0.234-1.845c0.123-0.575-0.38-2.224-1.051-2.386c-0.749-0.179-0.895-1.202-0.213-1.583
				c0.586-0.329,1.553-2.525,1.767-3.136c1.309-3.882,7.869-6.257,10.364-1.877c0.966-0.749,2.212-0.185,2.895,0.805
				c1.587,2.281,0.045,5.831-1.833,5.483c-0.241,1.392-2.5,2.644-0.781,3.275c1.569-2.018,4.112-2.286,5.923-3.521
				c0.995-0.687,1.761-1.682,2.565-2.739c4.405-5.751,19.438-15.477,20.576-16.389c1.693-1.35,6.127-3.334,6.636-1.257
				c0.284,1.148-1.023,1.674-2.046,2.28c0.038,0.567-0.317,1.029-0.801,1.344c-2.559,1.675-1.245-0.704-7.792,5.302
				c-1.905,1.755-3.577,3.991-5.964,5.417c-1.587,0.946-2.555,2.649-4.042,4.063c-4.499,4.266-4.246,7.457-7.585,9.39
				c-0.099,10.632,8.39,4.439,8.246,2.958c-0.354-3.801,3.03-8.323,5.266-17.297c0.279-1.102,1.939-0.683,1.665,0.416
				c-2.224,8.949-5.522,13.521-5.22,16.719c0.369,3.962-11.839,10.112-11.671-2.701c0.005-0.625-0.067-1.135,0.503-1.396
				c2.021-0.923,3.107-3.472,4.371-5.557c1.357-2.235,2.8-3.141,4.65-5.316c0.838-0.993,1.71-2.018,2.939-2.75
				c2.146-1.285,3.725-3.407,5.686-5.209c0.804-0.738,1.57-1.238,2.298-1.901c3.611-3.345,3.33-2.336,5.376-3.379
				c-0.1-0.235-0.089-0.5,0.022-0.721c-2.666,1.339-18.123,12.923-20.374,15.34c-1.403,1.51-2.466,3.51-4.339,4.797
				c-1.771,1.212-4.5,1.782-5.415,3.001c-0.218,0.295-0.514,0.699-1.008,0.815c-1.475,0.348-4.259-1.71-1.854-4.539
				c0.24-0.279,0.434-0.487,0.491-0.833c0.212-1.313,1.096-1.671,1.91-1.33c1.007-1.292,0.443-3.038-0.29-3.2
				c0,0.019-0.134,0.159-0.302,0.656c-0.251,0.733-1.274,0.784-1.599,0.073c-0.492-1.101-0.85-2.045-1.94-2.529
				c-1.552-0.688-5.058,0.35-5.907,2.859c-0.269,0.777-1.236,2.762-1.58,3.226c0.937,1.011,1.328,2.743,1.139,3.672
				c-0.027,0.129-0.078,0.38-0.067,0.486c0.016-0.017,0.095,0.005,0.298,0.005c1.139,0,3.649-0.737,5.242,1.667
				c1.805,2.738-0.944,4.925-1.778,6.07c-1.855,2.549,0.044,3.756-3.007,8.234c-3.187,4.673-5.836,10.274-10.096,14.314
				c-0.804,0.76-1.737,1.537-2.487,2.32c0.335-0.156,0.743-0.083,1.001,0.201c2.818-4.438,4.188-2.745,9.044-8.725
				c5.656-6.953,4.058-11.527,7.178-11.527c0.648,0,1.055,0.677,0.765,1.247c-0.166,0.323,0.309,1.705,0.979,2.621
				c0.648,0.492,1.91,0.884,3.028,1.229c6.508,2.002,3.02,4.053,13.516,2.181c2.203-0.402,3.656-0.671,5.702,1.46
				c0.134,0.139,0.219,0.328,0.236,0.53c0.413,5.628,3.158,11.905,4.648,17.507c0.309,1.141-0.859,9.184-2.515,14.93
				c-1.352,4.713-3.588,9.078-4.908,13.668c-1.195,4.142-0.317,2.162-0.872,5.656c-0.25,1.587,0.576,1.027,0.997-0.219
				c0.469-1.413,0.2-3.633,1.766-4.975c2.023-1.727,4.649-1.47,3.492-4.627c-1.999-5.439,3.277-8.777,4.926-14.282
				c0.731-2.449,0.549-5.026,0.358-7.754c-0.683-9.709,1.637-12.471,1.81-19.386c0.034-1.1,1.744-1.111,1.722,0.047
				c-0.144,5.432-1.945,10.194-1.989,15.432c-0.034,3.952,0.939,8.15-0.258,12.152c-1.698,5.674-6.574,8.788-4.957,13.197
				c0.419,1.141,1.313,3.359-1.701,5.17c-0.697,0.426-1.692,0.845-2.285,1.354c-0.893,0.76-0.798,2.829-1.264,4.215
				c-0.2,0.615-0.491,1.313-1.096,1.811C75.901,139.623,74.761,139.618,74.071,139.004z"></path>
<path fill="#fff" d="M79.975,93.928c14.947-7.127,13.604-28.933-1.307-34.248c-1.069-0.38-0.498-1.996,0.576-1.616
			c16.371,5.836,17.757,29.643,1.469,37.407C79.695,95.962,78.952,94.414,79.975,93.928z"></path>
<path fill="#fff" d="M53.804,26.655c6.367-2.507,13.035-3.778,19.821-3.781c1.136,0,1.136,1.716,0,1.716
		c-6.573,0-13.025,1.232-19.194,3.661C53.379,28.668,52.748,27.072,53.804,26.655z"></path>
<path fill="#fff" d="M32.249,42.275c3.271-3.946,7.05-7.375,11.237-10.192c0.938-0.632,1.888,0.788,0.955,1.419
		c-4.047,2.729-7.71,6.049-10.873,9.869C32.848,44.241,31.528,43.15,32.249,42.275z"></path>
<path fill="#fff" d="M65.072,130.043c-34.567-5.506-56.231-45.087-39.257-78.021c0.521-1.006,2.041-0.223,1.525,0.786
		c-16.433,31.875,4.546,70.214,38,75.542C66.457,128.528,66.196,130.223,65.072,130.043z"></path>
<path fill="#fff" d="M90.688,126.152c15.168-4.629,27.598-17.998,32.461-34.891c0.313-1.09,1.957-0.615,1.644,0.475
		c-5.019,17.445-17.892,31.258-33.604,36.055C90.114,128.125,89.6,126.482,90.688,126.152z"></path>
<path fill="#fff" d="M125.145,80.352c0.375-4.574,0.174-9.112-0.608-13.5c-0.196-1.124,1.498-1.414,1.688-0.302
		c0.805,4.533,1.018,9.223,0.633,13.935C126.761,81.613,125.05,81.479,125.145,80.352z"></path>
<path fill="#fff" d="M121.261,56.08c-4.528-10.665-12.532-19.573-22.551-25.076c-0.987-0.547-0.166-2.049,0.829-1.504
		c10.353,5.688,18.624,14.892,23.297,25.909C123.279,56.46,121.695,57.125,121.261,56.08z"></path></svg>